<?xml version="1.0" encoding="UTF-8" standalone="no"?>
<!-- Created with Inkscape (http://www.inkscape.org/) -->

<svg
   xmlns:dc="http://purl.org/dc/elements/1.1/"
   xmlns:cc="http://creativecommons.org/ns#"
   xmlns:rdf="http://www.w3.org/1999/02/22-rdf-syntax-ns#"
   xmlns:svg="http://www.w3.org/2000/svg"
   xmlns="http://www.w3.org/2000/svg"
   xmlns:sodipodi="http://sodipodi.sourceforge.net/DTD/sodipodi-0.dtd"
   xmlns:inkscape="http://www.inkscape.org/namespaces/inkscape"
   width="93.788338"
   height="92.503189"
   id="svg15225"
   version="1.1"
   inkscape:version="0.48.4 r9939"
   sodipodi:docname="New document 1">
  <defs
     id="defs15227">
    <clipPath
       id="clipPath5017"
       clipPathUnits="userSpaceOnUse">
      <path
         id="path5019"
         d="m 44,37.28 249.77,0 0,93.82 -249.77,0 0,-93.82 z"
         inkscape:connector-curvature="0" />
    </clipPath>
  </defs>
  <sodipodi:namedview
     id="base"
     pagecolor="#ffffff"
     bordercolor="#666666"
     borderopacity="1.0"
     inkscape:pageopacity="0.0"
     inkscape:pageshadow="2"
     inkscape:zoom="4.9608696"
     inkscape:cx="48.571429"
     inkscape:cy="38.571429"
     inkscape:document-units="px"
     inkscape:current-layer="layer1"
     showgrid="false"
     fit-margin-top="10"
     fit-margin-left="10"
     fit-margin-right="10"
     fit-margin-bottom="10"
     inkscape:window-width="798"
     inkscape:window-height="853"
     inkscape:window-x="800"
     inkscape:window-y="21"
     inkscape:window-maximized="0" />
  <metadata
     id="metadata15230">
    <rdf:RDF>
      <cc:Work
         rdf:about="">
        <dc:format>image/svg+xml</dc:format>
        <dc:type
           rdf:resource="http://purl.org/dc/dcmitype/StillImage" />
        <dc:title></dc:title>
      </cc:Work>
    </rdf:RDF>
  </metadata>
  <g
     inkscape:label="Layer 1"
     inkscape:groupmode="layer"
     id="layer1"
     transform="translate(-241.67635,-243.25339)">
    <path
       d="m 600,272.36218 c 0,80.47578 -70.35525,145.71428 -157.14285,145.71428 -86.7876,0 -157.14286,-65.2385 -157.14286,-145.71428 0,-80.47577 70.35526,-145.71428 157.14286,-145.71428 86.7876,0 157.14285,65.23851 157.14285,145.71428 z"
       sodipodi:ry="145.71428"
       sodipodi:rx="157.14285"
       sodipodi:cy="272.36218"
       sodipodi:cx="442.85715"
       id="path2985-6-7"
       style="fill:#000000;fill-opacity:0;stroke:#000000;stroke-width:2.22335935;stroke-linejoin:bevel;stroke-miterlimit:4;stroke-opacity:1;stroke-dasharray:none;stroke-dashoffset:0"
       sodipodi:type="arc"
       transform="matrix(0.20567417,0,0,0.20567417,193.14277,239.54053)" />
    <text
       sodipodi:linespacing="125%"
       id="text3044"
       y="258.23657"
       x="284.43451"
       style="font-size:6.83564711px;font-style:normal;font-weight:normal;text-align:center;line-height:125%;letter-spacing:0px;word-spacing:0px;text-anchor:middle;fill:#000000;fill-opacity:1;stroke:none;font-family:helvetica;-inkscape-font-specification:helvetica"
       xml:space="preserve"><tspan
         id="tspan3048"
         y="258.23657"
         x="284.43451"
         sodipodi:role="line">Regional symbiont pool</tspan></text>
    <g
       id="g5013"
       transform="matrix(0.20340473,0,0,-0.20340473,249.55764,310.27872)">
      <g
         clip-path="url(#clipPath5017)"
         id="g5015">
        <path
           id="path5021"
           style="fill:#ffffff;fill-opacity:1;fill-rule:nonzero;stroke:none"
           d="m 44,37.28 249.77,0 0,93.82 -249.77,0 0,-93.82 z"
           inkscape:connector-curvature="0" />
        <path
           id="path5023"
           style="fill:none;stroke:#f8766d;stroke-width:4.25;stroke-linecap:butt;stroke-linejoin:round;stroke-miterlimit:1;stroke-opacity:1;stroke-dasharray:none"
           d="m 55.36,41.55 0.27,0 0.16,0 0.21,0 0.01,0 0.27,0 0.78,0 0.11,0 0.95,0 0.41,0 0.49,0 0.29,0 0.97,0 1.01,0 0.89,0 0.61,0 0.71,0 0.03,0 0.21,0 0.98,0 0.13,0 0.49,0 0.78,0 0.3,0 0.45,0 0.43,0 0.72,0 2.74,0 0.99,0 0.44,0 0.46,0 0.06,0 0.44,0 0.83,0 0.02,0 0.35,0 0.07,0 0.24,0 1.28,0 0.05,0 1.93,0 0.44,0 0.29,0 0.2,0 0.07,0 0.08,0 0.47,0 0.16,0 0.76,0 0.04,0 0.35,0 0.03,0 0.76,0 0.56,0 0.13,0 0.18,0 0.05,0 0.21,0 0.38,0 0.72,0 0.49,0 0.33,0 0.66,0 1.06,0 0.33,0 0.2,0 0.03,0 0.06,0 0.01,0 0.62,0 0.12,0 0.16,0 0,0 0.52,0 0.5,0 0.42,0 0.9,0 0.15,0 0.15,0 0.03,0 0.21,0 0.09,0 0.53,0 0.79,0 0.08,0 0.77,0 0.3,0 0.1,0 0.19,0 1.21,0 2.91,0 0.08,0 0.32,0 0.29,0 0.34,0 0.11,0 0.04,0 0.16,0 0.21,0 0.13,0 0.07,0 0.56,0 0.4,0 0.05,0 0.82,0 0.06,0 0.31,0 0.24,0 0.68,0 0.09,0 0.46,0 0.09,0 0.62,0 0.42,0 0.61,0 0.39,0 0.04,0 0.81,0 0.29,0 0.52,0 0.1,0 0.42,0 1.9,0.01 0.14,0 0.02,0 0.94,0 2.61,0.01 0.34,0 1.65,0.01 0.2,0 0.5,0 0.02,0 0.03,0 0.29,0 0.42,0.01 0.25,0 0.65,0 0.1,0.01 0.67,0 0.56,0.01 0.22,0 0.1,0 0.22,0 0.02,0.01 0.18,0 0.17,0 0.31,0 0.27,0.01 0.58,0.01 0.67,0.01 0.59,0.01 0.16,0 0.2,0.01 0.01,0 0.33,0 0.84,0.02 1,0.03 1.19,0.04 0.81,0.03 0.01,0 0.48,0.02 0.47,0.02 2.04,0.11 0.35,0.02 0.42,0.03 0.09,0 0.14,0.01 0.24,0.02 0.16,0.01 0.05,0.01 0.2,0.01 0.14,0.01 0.13,0.01 0.53,0.04 0.28,0.03 0.44,0.04 0.1,0.01 0.72,0.07 0.3,0.03 0.24,0.02 0.86,0.1 0,0 0.01,0 0.42,0.05 1.22,0.17 0.17,0.03 0.05,0 0.35,0.06 0.2,0.03 0.12,0.02 0.08,0.01 0.17,0.03 0.44,0.07 1.34,0.25 0.19,0.04 0.47,0.1 0.16,0.03 0.38,0.09 0.12,0.02 0.02,0.01 0.07,0.01 0.14,0.03 0.38,0.09 1.82,0.48 0.03,0.01 0.15,0.04 0.43,0.13 0.08,0.02 1.03,0.33 0.04,0.01 0.84,0.29 0.31,0.11 0.29,0.11 0.6,0.23 1.43,0.58 0.24,0.1 0.35,0.16 0.03,0.01 0.47,0.22 0.43,0.2 0.53,0.26 0.16,0.08 0.21,0.1 0.15,0.08 0.2,0.1 0.6,0.31 0.46,0.25 0.04,0.02 1.1,0.63 1.31,0.78 1.04,0.66 0.01,0 2.03,1.37 0.28,0.19 1.65,1.18 0.09,0.07 0.07,0.05 0.64,0.47 0.29,0.22 0.14,0.1 0.24,0.18 0.27,0.2 0.24,0.18 0.9,0.68 0.01,0.02 0.08,0.06 0.13,0.1 0.38,0.29 1.3,0.99 0.25,0.19 0.58,0.44 0.68,0.52 0.01,0.01 0.19,0.14 0.1,0.07 0.55,0.41 0.42,0.31 0.06,0.05 0.38,0.27 0.62,0.45 0.24,0.17 0.86,0.6 0.38,0.26 1,0.66 0.1,0.07 0.82,0.52 0.04,0.02 1.04,0.61 1.54,0.82 0.44,0.21 0.5,0.23 0.63,0.27 1.02,0.38 0.7,0.23 0.05,0.02 0.65,0.18 0.14,0.04 0.23,0.05 0.13,0.03 0.08,0.02 0.74,0.15 1.28,0.17 0.09,0.01 0.05,0 0.56,0.04 1.04,0.01 1,-0.07 0.26,-0.02 0.38,-0.05 1.65,-0.32 0.36,-0.09 0.36,-0.11 0.13,-0.03 0.11,-0.04 0.95,-0.32 0.46,-0.17 0.31,-0.13 0.76,-0.32 0.83,-0.4 0.88,-0.45 0.75,-0.42 1.98,-1.21 0.05,-0.03 2.03,-1.39 0.03,-0.02 0.06,-0.04 0.86,-0.62 0.72,-0.53 0.81,-0.61 0.15,-0.11 0.73,-0.55 0.04,-0.03 0.2,-0.15 0.17,-0.14 0.26,-0.19 0.42,-0.32 0.78,-0.6 0.1,-0.07 0.58,-0.45 0.94,-0.71 0.73,-0.55 0.05,-0.04 0.95,-0.7 0.05,-0.04 0.11,-0.08 0.01,-0.01 0.36,-0.26 0.26,-0.19 2.09,-1.47 0.63,-0.42 0.18,-0.12 0.16,-0.1 0.18,-0.13 0.24,-0.15 0.18,-0.12 0.84,-0.52 0.28,-0.18 0.37,-0.22 0.3,-0.18 0.55,-0.32 1.19,-0.67 0.41,-0.22 0.05,-0.02 0.32,-0.17 0.08,-0.04 0.03,-0.02 0.1,-0.05 0.06,-0.03 0.57,-0.28 0.22,-0.11 0.07,-0.04 0.18,-0.08 0.54,-0.26 2.04,-0.87 0.25,-0.1 0.12,-0.05 0.34,-0.13 0.43,-0.16 0.24,-0.08 0.26,-0.1 0.02,0 0.29,-0.11 0.11,-0.03 0.29,-0.1 0.53,-0.18 0.43,-0.13 0.08,-0.02 0.59,-0.18 0.04,-0.01 0.39,-0.11 0.07,-0.02 1.07,-0.28 0.89,-0.22 0.08,-0.02 0.05,-0.01 0.76,-0.17 1.96,-0.37 0.64,-0.11 0.93,-0.14 0.16,-0.02 0.4,-0.06 0.09,-0.01 0.02,0 0.22,-0.03 0.17,-0.03 0.1,-0.01 0.07,-0.01 0.52,-0.06 0,0 0.01,0 0.98,-0.11 0.05,-0.01 0.64,-0.06 0.05,-0.01 0.47,-0.04 1.97,-0.16 0.2,-0.01 0.49,-0.03 0.6,-0.04 0.09,-0.01 0.6,-0.03 1.98,-0.09 0.21,-0.01 1.93,-0.07 0.98,-0.02 0.5,-0.02 2.46,-0.05 0.06,0 0.12,0 0.29,0 0.14,0 0.94,-0.02 0.41,0 0.04,0 1.28,-0.02 0.07,0 0.03,0 0.24,0 0.22,0 0.74,-0.01 0.48,0 0.52,0 0.28,0 1.18,-0.01 0.49,0 0.32,0 0.12,0 0.23,0 0.08,-0.01 0.08,0 0.13,0 0.14,0 0.14,0 0.03,0 0.06,0 0.66,0 0.01,0 0.2,0 0.15,0 0.57,0 0.22,0 0.47,0 0.6,0 0.08,0 0.39,-0.01 0.12,0 1.15,0 0.21,0 0.87,0 0.44,0 0.09,0 0.26,0 0.13,0 0.54,0 0.09,0 0.16,0 0.21,0 1.61,0 0.38,0 0.11,0 0.54,0 1.8,0 0.33,0 0.31,0 0.24,0 0.68,0 0.33,0 0.16,0 0.82,0 0.28,0 0.08,0 0.06,0 2.15,0 0.28,0 0.83,0 0.44,0 0.61,0 0.48,0 0.05,0 0.27,0 1.23,0 0.56,0 0.83,0 0.83,0 0.62,0 0.71,0 0.18,0 0.26,0 0.01,0 0.02,0 0.63,0 0.17,0 0.12,0 0.4,0 0.54,0 1,0 0.12,0 0.4,0 0.21,0 0.15,0"
           inkscape:connector-curvature="0" />
        <path
           id="path5025"
           style="fill:none;stroke:#cd9600;stroke-width:4.25;stroke-linecap:butt;stroke-linejoin:round;stroke-miterlimit:1;stroke-opacity:1;stroke-dasharray:none"
           d="m 55.36,41.55 0.27,0 0.16,0 0.21,0 0.01,0 0.27,0 0.78,0 0.11,0 0.95,0 0.41,0 0.49,0 0.29,0 0.97,0 1.01,0 0.89,0 0.61,0 0.71,0 0.03,0 0.21,0 0.98,0 0.13,0 0.49,0 0.78,0 0.3,0 0.45,0 0.43,0 0.72,0 2.74,0 0.99,0 0.44,0 0.46,0 0.06,0 0.44,0 0.83,0 0.02,0 0.35,0 0.07,0 0.24,0 1.28,0 0.05,0 1.93,0 0.44,0 0.29,0 0.2,0 0.07,0 0.08,0 0.47,0 0.16,0 0.76,0 0.04,0 0.35,0 0.03,0 0.76,0 0.56,0 0.13,0 0.18,0 0.05,0 0.21,0 0.38,0 0.72,0 0.49,0 0.33,0 0.66,0 1.06,0 0.33,0 0.2,0 0.03,0 0.06,0 0.01,0 0.62,0 0.12,0 0.16,0 0,0 0.52,0 0.5,0 0.42,0 0.9,0 0.15,0 0.15,0 0.03,0 0.21,0 0.09,0 0.53,0 0.79,0 0.08,0 0.77,0 0.3,0 0.1,0 0.19,0 1.21,0 2.91,0 0.08,0 0.32,0 0.29,0 0.34,0 0.11,0 0.04,0 0.16,0 0.21,0 0.13,0 0.07,0 0.56,0 0.4,0 0.05,0 0.82,0 0.06,0 0.31,0 0.24,0 0.68,0 0.09,0 0.46,0 0.09,0 0.62,0 0.42,0 0.61,0 0.39,0 0.04,0 0.81,0 0.29,0 0.52,0 0.1,0 0.42,0 1.9,0 0.14,0 0.02,0 0.94,0 2.61,0 0.34,0 1.65,0 0.2,0 0.5,0 0.02,0 0.03,0 0.29,0 0.42,0 0.25,0 0.65,0 0.1,0 0.67,0 0.56,0 0.22,0 0.1,0 0.22,0 0.02,0 0.18,0 0.17,0 0.31,0 0.27,0 0.58,0 0.67,0 0.59,0 0.16,0 0.2,0 0.01,0 0.33,0 0.84,0 1,0 1.19,0 0.81,0 0.01,0 0.48,0 0.47,0 2.04,0 0.35,0 0.42,0 0.09,0 0.14,0 0.24,0 0.16,0 0.05,0 0.2,0 0.14,0 0.13,0 0.53,0 0.28,0 0.44,0 0.1,0 0.72,0 0.3,0 0.24,0 0.86,0 0,0 0.01,0 0.42,0 1.22,0 0.17,0 0.05,0 0.35,0 0.2,0 0.12,0 0.08,0 0.17,0 0.44,0 1.34,0 0.19,0 0.47,0 0.16,0 0.38,0 0.12,0 0.02,0 0.07,0 0.14,0 0.38,0 1.82,0 0.03,0 0.15,0 0.43,0 0.08,0 1.03,0 0.04,0 0.84,0 0.31,0 0.29,0 0.6,0 1.43,0 0.24,0 0.35,0 0.03,0 0.47,0 0.43,0 0.53,0 0.16,0 0.21,0 0.15,0 0.2,0 0.6,0 0.46,0 0.04,0 1.1,0 1.31,0 1.04,0 0.01,0 2.03,0 0.28,0 1.65,0 0.09,0 0.07,0 0.64,0 0.29,0 0.14,0 0.24,0 0.27,0 0.24,0 0.9,0 0.01,0 0.08,0 0.13,0 0.38,0 1.3,0 0.25,0 0.58,0 0.68,0 0.01,0 0.19,0 0.1,0 0.55,0 0.42,0 0.06,0 0.38,0 0.62,0 0.24,0 0.86,0 0.38,0 1,0 0.1,0 0.82,0 0.04,0 1.04,0 1.54,0 0.44,0 0.5,0 0.63,0 1.02,0 0.7,0 0.05,0 0.65,0 0.14,0 0.23,0 0.13,0 0.08,0 0.74,0 1.28,0 0.09,0 0.05,0 0.56,0 1.04,0 1,0 0.26,0 0.38,0 1.65,0 0.36,0 0.36,0 0.13,0 0.11,0 0.95,0 0.46,0 0.31,0 0.76,0 0.83,0 0.88,0 0.75,0 1.98,0 0.05,0 2.03,0 0.03,0 0.06,0 0.86,0 0.72,0 0.81,0 0.15,0 0.73,0.01 0.04,0 0.2,0 0.17,0 0.26,0 0.42,0 0.78,0.01 0.1,0 0.58,0 0.94,0.01 0.73,0.01 0.05,0 0.95,0.02 0.05,0 0.11,0 0.01,0 0.36,0.01 0.26,0.01 2.09,0.08 0.63,0.04 0.18,0.01 0.16,0.01 0.18,0.01 0.24,0.02 0.18,0.02 0.84,0.07 0.28,0.03 0.37,0.05 0.3,0.04 0.55,0.07 1.19,0.22 0.41,0.08 0.05,0.01 0.32,0.08 0.08,0.02 0.03,0.01 0.1,0.02 0.06,0.02 0.57,0.16 0.22,0.06 0.07,0.03 0.18,0.05 0.54,0.19 2.04,0.93 0.25,0.14 0.12,0.08 0.34,0.2 0.43,0.29 0.24,0.16 0.26,0.19 0.02,0.02 0.29,0.22 0.11,0.09 0.29,0.23 0.53,0.47 0.43,0.41 0.08,0.07 0.59,0.61 0.04,0.05 0.39,0.44 0.07,0.08 1.07,1.32 0.89,1.26 0.08,0.11 0.05,0.08 0.76,1.2 1.96,3.53 0.64,1.27 0.93,1.98 0.16,0.34 0.4,0.91 0.09,0.19 0.02,0.04 0.22,0.51 0.17,0.39 0.1,0.23 0.07,0.15 0.52,1.2 0,0.01 0.01,0.03 0.98,2.33 0.05,0.13 0.64,1.54 0.05,0.11 0.47,1.15 1.97,4.65 0.2,0.46 0.49,1.08 0.6,1.29 0.09,0.18 0.6,1.22 1.98,3.38 0.21,0.29 1.93,2.02 0.98,0.53 0.5,0.12 2.46,-0.77 0.06,-0.04 0.12,-0.1 0.29,-0.26 0.14,-0.13 0.94,-1.07 0.41,-0.57 0.04,-0.06 1.28,-2.07 0.07,-0.13 0.03,-0.05 0.24,-0.44 0.22,-0.42 0.74,-1.48 0.48,-1.02 0.52,-1.14 0.28,-0.64 1.18,-2.75 0.49,-1.17 0.32,-0.77 0.12,-0.29 0.23,-0.55 0.08,-0.19 0.08,-0.21 0.13,-0.3 0.14,-0.35 0.14,-0.34 0.03,-0.08 0.06,-0.14 0.66,-1.58 0.01,-0.02 0.2,-0.48 0.15,-0.36 0.57,-1.33 0.22,-0.51 0.47,-1.08 0.6,-1.32 0.08,-0.18 0.39,-0.86 0.12,-0.25 1.15,-2.34 0.21,-0.41 0.87,-1.6 0.44,-0.76 0.09,-0.16 0.26,-0.43 0.13,-0.22 0.54,-0.85 0.09,-0.13 0.16,-0.25 0.21,-0.3 1.61,-2.11 0.38,-0.45 0.11,-0.11 0.54,-0.58 1.8,-1.6 0.33,-0.24 0.31,-0.22 0.24,-0.16 0.68,-0.42 0.33,-0.18 0.16,-0.09 0.82,-0.4 0.28,-0.13 0.08,-0.03 0.06,-0.02 2.15,-0.72 0.28,-0.07 0.83,-0.18 0.44,-0.08 0.61,-0.11 0.48,-0.07 0.05,0 0.27,-0.04 1.23,-0.13 0.56,-0.05 0.83,-0.06 0.83,-0.04 0.62,-0.03 0.71,-0.03 0.18,0 0.26,-0.01 0.01,0 0.02,0 0.63,-0.02 0.17,0 0.12,0 0.4,-0.01 0.54,-0.01 1,-0.01 0.12,0 0.4,-0.01 0.21,0 0.15,0"
           inkscape:connector-curvature="0" />
        <path
           id="path5027"
           style="fill:none;stroke:#7cae00;stroke-width:4.25;stroke-linecap:butt;stroke-linejoin:round;stroke-miterlimit:1;stroke-opacity:1;stroke-dasharray:none"
           d="m 55.36,41.55 0.27,0 0.16,0 0.21,0 0.01,0 0.27,0 0.78,0 0.11,0 0.95,0 0.41,0 0.49,0 0.29,0 0.97,0 1.01,0 0.89,0 0.61,0 0.71,0 0.03,0 0.21,0 0.98,0 0.13,0 0.49,0 0.78,0 0.3,0 0.45,0 0.43,0 0.72,0 2.74,0 0.99,0 0.44,0 0.46,0 0.06,0 0.44,0 0.83,0 0.02,0 0.35,0 0.07,0 0.24,0 1.28,0 0.05,0 1.93,0 0.44,0 0.29,0 0.2,0 0.07,0 0.08,0 0.47,0 0.16,0 0.76,0 0.04,0 0.35,0 0.03,0 0.76,0 0.56,0 0.13,0 0.18,0 0.05,0 0.21,0 0.38,0 0.72,0 0.49,0 0.33,0 0.66,0 1.06,0 0.33,0 0.2,0 0.03,0 0.06,0 0.01,0 0.62,0 0.12,0 0.16,0 0,0 0.52,0 0.5,0 0.42,0 0.9,0 0.15,0 0.15,0 0.03,0 0.21,0 0.09,0 0.53,0 0.79,0 0.08,0 0.77,0 0.3,0 0.1,0 0.19,0 1.21,0 2.91,0 0.08,0 0.32,0 0.29,0 0.34,0 0.11,0 0.04,0 0.16,0 0.21,0 0.13,0 0.07,0 0.56,0 0.4,0 0.05,0 0.82,0 0.06,0 0.31,0 0.24,0 0.68,0 0.09,0 0.46,0 0.09,0 0.62,0 0.42,0 0.61,0 0.39,0 0.04,0 0.81,0 0.29,0 0.52,0 0.1,0 0.42,0 1.9,0 0.14,0 0.02,0 0.94,0 2.61,0 0.34,0 1.65,0 0.2,0 0.5,0 0.02,0 0.03,0 0.29,0 0.42,0 0.25,0 0.65,0 0.1,0 0.67,0 0.56,0 0.22,0 0.1,0 0.22,0 0.02,0 0.18,0 0.17,0 0.31,0 0.27,0 0.58,0 0.67,0 0.59,0 0.16,0 0.2,0 0.01,0 0.33,0 0.84,0 1,0 1.19,0 0.81,0 0.01,0 0.48,0 0.47,0 2.04,0 0.35,0 0.42,0 0.09,0 0.14,0 0.24,0 0.16,0 0.05,0 0.2,0 0.14,0 0.13,0 0.53,0 0.28,0 0.44,0 0.1,0 0.72,0 0.3,0 0.24,0 0.86,0 0,0 0.01,0 0.42,0 1.22,0 0.17,0 0.05,0 0.35,0 0.2,0 0.12,0 0.08,0 0.17,0 0.44,0 1.34,0 0.19,0 0.47,0 0.16,0 0.38,0 0.12,0 0.02,0 0.07,0 0.14,0 0.38,0 1.82,0 0.03,0 0.15,0 0.43,0 0.08,0 1.03,0 0.04,0 0.84,0 0.31,0 0.29,0 0.6,0 1.43,0 0.24,0 0.35,0 0.03,0 0.47,0 0.43,0 0.53,0 0.16,0 0.21,0 0.15,0 0.2,0 0.6,0 0.46,0 0.04,0 1.1,0 1.31,0 1.04,0 0.01,0 2.03,0 0.28,0 1.65,0 0.09,0 0.07,0 0.64,0 0.29,0 0.14,0 0.24,0 0.27,0 0.24,0 0.9,0 0.01,0 0.08,0 0.13,0 0.38,0 1.3,0 0.25,0 0.58,0 0.68,0 0.01,0 0.19,0 0.1,0 0.55,0 0.42,0 0.06,0 0.38,0 0.62,0 0.24,0 0.86,0 0.38,0 1,0 0.1,0 0.82,0 0.04,0 1.04,0.01 1.54,0.01 0.44,0 0.5,0.01 0.63,0.01 1.02,0.02 0.7,0.02 0.05,0 0.65,0.03 0.14,0 0.23,0.01 0.13,0.01 0.08,0 0.74,0.04 1.28,0.11 0.09,0.01 0.05,0 0.56,0.06 1.04,0.15 1,0.19 0.26,0.06 0.38,0.1 1.65,0.54 0.36,0.15 0.36,0.17 0.13,0.06 0.11,0.05 0.95,0.54 0.46,0.31 0.31,0.22 0.76,0.61 0.83,0.78 0.88,0.98 0.75,0.96 1.98,3.15 0.05,0.09 2.03,4.25 0.03,0.06 0.06,0.15 0.86,2.1 0.72,1.9 0.81,2.24 0.15,0.45 0.73,2.13 0.04,0.12 0.2,0.58 0.17,0.54 0.26,0.77 0.42,1.29 0.78,2.41 0.1,0.3 0.58,1.8 0.94,2.84 0.73,2.16 0.05,0.12 0.95,2.64 0.05,0.14 0.11,0.27 0.01,0.03 0.36,0.9 0.26,0.64 2.09,4.2 0.63,0.87 0.18,0.22 0.16,0.17 0.18,0.19 0.24,0.21 0.18,0.15 0.84,0.44 0.28,0.06 0.37,0.01 0.3,-0.04 0.55,-0.21 1.19,-1.02 0.41,-0.52 0.05,-0.06 0.32,-0.47 0.08,-0.13 0.03,-0.06 0.1,-0.16 0.06,-0.09 0.57,-1.03 0.22,-0.44 0.07,-0.15 0.18,-0.36 0.54,-1.21 2.04,-5.36 0.25,-0.71 0.12,-0.35 0.34,-1.01 0.43,-1.31 0.24,-0.7 0.26,-0.81 0.02,-0.05 0.29,-0.92 0.11,-0.33 0.29,-0.89 0.53,-1.65 0.43,-1.32 0.08,-0.23 0.59,-1.79 0.04,-0.13 0.39,-1.17 0.07,-0.2 1.07,-3.04 0.89,-2.41 0.08,-0.19 0.05,-0.13 0.76,-1.89 1.96,-4.24 0.64,-1.16 0.93,-1.54 0.16,-0.24 0.4,-0.59 0.09,-0.12 0.02,-0.03 0.22,-0.3 0.17,-0.23 0.1,-0.12 0.07,-0.09 0.52,-0.62 0,0 0.01,-0.02 0.98,-1.02 0.05,-0.06 0.64,-0.56 0.05,-0.04 0.47,-0.37 1.97,-1.2 0.2,-0.1 0.49,-0.21 0.6,-0.23 0.09,-0.03 0.6,-0.19 1.98,-0.45 0.21,-0.03 1.93,-0.23 0.98,-0.08 0.5,-0.03 2.46,-0.09 0.06,0 0.12,0 0.29,-0.01 0.14,0 0.94,-0.01 0.41,-0.01 0.04,0 1.28,-0.01 0.07,0 0.03,0 0.24,0 0.22,0 0.74,0 0.48,-0.01 0.52,0 0.28,0 1.18,0 0.49,0 0.32,0 0.12,0 0.23,0 0.08,0 0.08,0 0.13,0 0.14,0 0.14,0 0.03,0 0.06,0 0.66,0 0.01,0 0.2,0 0.15,0 0.57,0 0.22,0 0.47,0 0.6,0 0.08,0 0.39,0 0.12,0 1.15,0 0.21,0 0.87,0 0.44,0 0.09,0 0.26,0 0.13,0 0.54,0 0.09,0 0.16,0 0.21,0 1.61,0 0.38,0 0.11,0 0.54,0 1.8,0 0.33,0 0.31,0 0.24,0 0.68,0 0.33,0 0.16,0 0.82,0 0.28,0 0.08,0 0.06,0 2.15,0 0.28,0 0.83,0 0.44,0 0.61,0 0.48,0 0.05,0 0.27,0 1.23,0 0.56,0 0.83,0 0.83,0 0.62,0 0.71,0 0.18,0 0.26,0 0.01,0 0.02,0 0.63,0 0.17,0 0.12,0 0.4,0 0.54,0 1,0 0.12,0 0.4,0 0.21,0 0.15,0"
           inkscape:connector-curvature="0" />
        <path
           id="path5029"
           style="fill:none;stroke:#00be67;stroke-width:4.25;stroke-linecap:butt;stroke-linejoin:round;stroke-miterlimit:1;stroke-opacity:1;stroke-dasharray:none"
           d="m 55.36,41.55 0.27,0 0.16,0 0.21,0 0.01,0 0.27,0 0.78,0 0.11,0 0.95,0 0.41,0 0.49,0 0.29,0 0.97,0 1.01,0 0.89,0 0.61,0 0.71,0 0.03,0 0.21,0 0.98,0 0.13,0 0.49,0 0.78,0 0.3,0 0.45,0 0.43,0 0.72,0 2.74,0 0.99,0 0.44,0 0.46,0 0.06,0 0.44,0 0.83,0 0.02,0 0.35,0 0.07,0 0.24,0 1.28,0 0.05,0 1.93,0 0.44,0 0.29,0 0.2,0 0.07,0 0.08,0 0.47,0 0.16,0 0.76,0 0.04,0 0.35,0 0.03,0 0.76,0 0.56,0 0.13,0 0.18,0 0.05,0 0.21,0 0.38,0 0.72,0 0.49,0 0.33,0 0.66,0 1.06,0 0.33,0 0.2,0 0.03,0 0.06,0 0.01,0 0.62,0 0.12,0 0.16,0 0,0 0.52,0 0.5,0 0.42,0 0.9,0 0.15,0 0.15,0 0.03,0 0.21,0 0.09,0 0.53,0 0.79,0.01 0.08,0 0.77,0 0.3,0 0.1,0 0.19,0 1.21,0.01 2.91,0.03 0.08,0 0.32,0.01 0.29,0.01 0.34,0 0.11,0.01 0.04,0 0.16,0 0.21,0 0.13,0.01 0.07,0 0.56,0.02 0.4,0.01 0.05,0 0.82,0.03 0.06,0 0.31,0.02 0.24,0.01 0.68,0.03 0.09,0.01 0.46,0.02 0.09,0.01 0.62,0.04 0.42,0.04 0.61,0.05 0.39,0.04 0.04,0 0.81,0.09 0.29,0.04 0.52,0.07 0.1,0.01 0.42,0.07 1.9,0.36 0.14,0.03 0.02,0.01 0.94,0.24 2.61,0.91 0.34,0.15 1.65,0.84 0.2,0.12 0.5,0.3 0.02,0.01 0.03,0.02 0.29,0.19 0.42,0.28 0.25,0.18 0.65,0.49 0.1,0.08 0.67,0.55 0.56,0.49 0.22,0.2 0.1,0.09 0.22,0.22 0.02,0.02 0.18,0.17 0.17,0.16 0.31,0.32 0.27,0.28 0.58,0.64 0.67,0.77 0.59,0.71 0.16,0.21 0.2,0.25 0.01,0.01 0.33,0.43 0.84,1.14 1,1.44 1.19,1.83 0.81,1.29 0.01,0.01 0.48,0.79 0.47,0.78 2.04,3.46 0.35,0.61 0.42,0.72 0.09,0.16 0.14,0.23 0.24,0.41 0.16,0.26 0.05,0.09 0.2,0.34 0.14,0.24 0.13,0.22 0.53,0.87 0.28,0.46 0.44,0.71 0.1,0.16 0.72,1.12 0.3,0.45 0.24,0.36 0.86,1.21 0,0 0.01,0.02 0.42,0.54 1.22,1.48 0.17,0.18 0.05,0.06 0.35,0.36 0.2,0.19 0.12,0.12 0.08,0.08 0.17,0.15 0.44,0.38 1.34,0.9 0.19,0.1 0.47,0.2 0.16,0.06 0.38,0.12 0.12,0.03 0.02,0 0.07,0.02 0.14,0.02 0.38,0.06 1.82,-0.2 0.03,-0.01 0.15,-0.05 0.43,-0.18 0.08,-0.03 1.03,-0.61 0.04,-0.02 0.84,-0.67 0.31,-0.27 0.29,-0.28 0.6,-0.62 1.43,-1.72 0.24,-0.32 0.35,-0.49 0.03,-0.03 0.47,-0.68 0.43,-0.64 0.53,-0.81 0.16,-0.24 0.21,-0.33 0.15,-0.24 0.2,-0.32 0.6,-0.98 0.46,-0.78 0.04,-0.05 1.1,-1.87 1.31,-2.25 1.04,-1.77 0.01,-0.01 2.03,-3.34 0.28,-0.44 1.65,-2.47 0.09,-0.13 0.07,-0.1 0.64,-0.89 0.29,-0.39 0.14,-0.19 0.24,-0.3 0.27,-0.34 0.24,-0.31 0.9,-1.07 0.01,-0.02 0.08,-0.09 0.13,-0.15 0.38,-0.43 1.3,-1.32 0.25,-0.23 0.58,-0.53 0.68,-0.58 0.01,0 0.19,-0.15 0.1,-0.08 0.55,-0.41 0.42,-0.3 0.06,-0.04 0.38,-0.26 0.62,-0.39 0.24,-0.14 0.86,-0.47 0.38,-0.19 1,-0.45 0.1,-0.04 0.82,-0.32 0.04,-0.01 1.04,-0.35 1.54,-0.4 0.44,-0.1 0.5,-0.1 0.63,-0.12 1.02,-0.15 0.7,-0.09 0.05,-0.01 0.65,-0.07 0.14,-0.02 0.23,-0.02 0.13,-0.01 0.08,-0.01 0.74,-0.06 1.28,-0.09 0.09,0 0.05,-0.01 0.56,-0.02 1.04,-0.05 1,-0.03 0.26,-0.01 0.38,-0.01 1.65,-0.04 0.36,0 0.36,-0.01 0.13,0 0.11,0 0.95,-0.01 0.46,0 0.31,-0.01 0.76,0 0.83,-0.01 0.88,0 0.75,0 1.98,-0.01 0.05,0 2.03,0 0.03,0 0.06,0 0.86,0 0.72,0 0.81,0 0.15,0 0.73,0 0.04,0 0.2,0 0.17,0 0.26,0 0.42,0 0.78,0 0.1,0 0.58,0 0.94,0 0.73,0 0.05,0 0.95,0 0.05,0 0.11,0 0.01,0 0.36,0 0.26,0 2.09,0 0.63,0 0.18,0 0.16,0 0.18,0 0.24,0 0.18,0 0.84,0 0.28,0 0.37,0 0.3,0 0.55,0 1.19,0 0.41,0 0.05,0 0.32,0 0.08,0 0.03,0 0.1,0 0.06,0 0.57,0 0.22,0 0.07,0 0.18,0 0.54,0 2.04,0 0.25,0 0.12,0 0.34,0 0.43,0 0.24,0 0.26,0 0.02,0 0.29,0 0.11,0 0.29,0 0.53,0 0.43,0 0.08,0 0.59,0 0.04,0 0.39,0 0.07,0 1.07,0 0.89,0 0.08,0 0.05,0 0.76,0 1.96,0 0.64,0 0.93,0 0.16,0 0.4,0 0.09,0 0.02,0 0.22,0 0.17,0 0.1,0 0.07,0 0.52,0 0,0 0.01,0 0.98,0 0.05,0 0.64,0 0.05,0 0.47,0 1.97,0 0.2,0 0.49,0 0.6,0 0.09,0 0.6,0 1.98,0 0.21,0 1.93,0 0.98,0 0.5,0 2.46,0 0.06,0 0.12,0 0.29,0 0.14,0 0.94,0 0.41,0 0.04,0 1.28,0 0.07,0 0.03,0 0.24,0 0.22,0 0.74,0 0.48,0 0.52,0 0.28,0 1.18,0 0.49,0 0.32,0 0.12,0 0.23,0 0.08,0 0.08,0 0.13,0 0.14,0 0.14,0 0.03,0 0.06,0 0.66,0 0.01,0 0.2,0 0.15,0 0.57,0 0.22,0 0.47,0 0.6,0 0.08,0 0.39,0 0.12,0 1.15,0 0.21,0 0.87,0 0.44,0 0.09,0 0.26,0 0.13,0 0.54,0 0.09,0 0.16,0 0.21,0 1.61,0 0.38,0 0.11,0 0.54,0 1.8,0 0.33,0 0.31,0 0.24,0 0.68,0 0.33,0 0.16,0 0.82,0 0.28,0 0.08,0 0.06,0 2.15,0 0.28,0 0.83,0 0.44,0 0.61,0 0.48,0 0.05,0 0.27,0 1.23,0 0.56,0 0.83,0 0.83,0 0.62,0 0.71,0 0.18,0 0.26,0 0.01,0 0.02,0 0.63,0 0.17,0 0.12,0 0.4,0 0.54,0 1,0 0.12,0 0.4,0 0.21,0 0.15,0"
           inkscape:connector-curvature="0" />
        <path
           id="path5031"
           style="fill:none;stroke:#00bfc4;stroke-width:4.25;stroke-linecap:butt;stroke-linejoin:round;stroke-miterlimit:1;stroke-opacity:1;stroke-dasharray:none"
           d="m 55.36,42.08 0.27,0.03 0.16,0.02 0.21,0.02 0.01,0 0.27,0.04 0.78,0.1 0.11,0.02 0.95,0.15 0.41,0.07 0.49,0.09 0.29,0.06 0.97,0.21 1.01,0.26 0.89,0.26 0.61,0.2 0.71,0.26 0.03,0.01 0.21,0.08 0.98,0.4 0.13,0.05 0.49,0.23 0.78,0.38 0.3,0.15 0.45,0.25 0.43,0.24 0.72,0.43 2.74,1.97 0.99,0.84 0.44,0.39 0.46,0.42 0.06,0.06 0.44,0.42 0.83,0.83 0.02,0.02 0.35,0.36 0.07,0.08 0.24,0.26 1.28,1.41 0.05,0.06 1.93,2.3 0.44,0.55 0.29,0.36 0.2,0.26 0.07,0.08 0.08,0.1 0.47,0.61 0.16,0.2 0.76,0.99 0.04,0.05 0.35,0.46 0.03,0.04 0.76,1 0.56,0.74 0.13,0.17 0.18,0.23 0.05,0.06 0.21,0.28 0.38,0.49 0.72,0.93 0.49,0.62 0.33,0.42 0.66,0.8 1.06,1.26 0.33,0.38 0.2,0.22 0.03,0.03 0.06,0.07 0.01,0.01 0.62,0.67 0.12,0.12 0.16,0.17 0,0 0.52,0.52 0.5,0.48 0.42,0.37 0.9,0.75 0.15,0.12 0.15,0.11 0.03,0.03 0.21,0.14 0.09,0.07 0.53,0.35 0.79,0.46 0.08,0.04 0.77,0.35 0.3,0.12 0.1,0.03 0.19,0.06 1.21,0.28 2.91,-0.26 0.08,-0.02 0.32,-0.11 0.29,-0.11 0.34,-0.15 0.11,-0.05 0.04,-0.02 0.16,-0.08 0.21,-0.11 0.13,-0.07 0.07,-0.04 0.56,-0.33 0.4,-0.27 0.05,-0.03 0.82,-0.6 0.06,-0.05 0.31,-0.26 0.24,-0.2 0.68,-0.62 0.09,-0.08 0.46,-0.45 0.09,-0.08 0.62,-0.64 0.42,-0.45 0.61,-0.68 0.39,-0.45 0.04,-0.05 0.81,-0.96 0.29,-0.36 0.52,-0.65 0.1,-0.12 0.42,-0.54 1.9,-2.46 0.14,-0.19 0.02,-0.01 0.94,-1.24 2.61,-3.36 0.34,-0.43 1.65,-1.98 0.2,-0.23 0.5,-0.57 0.02,-0.03 0.03,-0.02 0.29,-0.34 0.42,-0.45 0.25,-0.27 0.65,-0.68 0.1,-0.1 0.67,-0.67 0.56,-0.54 0.22,-0.19 0.1,-0.1 0.22,-0.2 0.02,-0.02 0.18,-0.16 0.17,-0.14 0.31,-0.27 0.27,-0.23 0.58,-0.48 0.67,-0.52 0.59,-0.43 0.16,-0.11 0.2,-0.14 0.01,-0.01 0.33,-0.22 0.84,-0.54 1,-0.58 1.19,-0.61 0.81,-0.37 0.01,-0.01 0.48,-0.2 0.47,-0.19 2.04,-0.69 0.35,-0.1 0.42,-0.12 0.09,-0.02 0.14,-0.03 0.24,-0.06 0.16,-0.04 0.05,-0.01 0.2,-0.05 0.14,-0.04 0.13,-0.02 0.53,-0.12 0.28,-0.05 0.44,-0.09 0.1,-0.02 0.72,-0.12 0.3,-0.05 0.24,-0.03 0.86,-0.12 0,0 0.01,0 0.42,-0.05 1.22,-0.13 0.17,-0.02 0.05,-0.01 0.35,-0.03 0.2,-0.01 0.12,-0.01 0.08,-0.01 0.17,-0.01 0.44,-0.04 1.34,-0.08 0.19,-0.01 0.47,-0.02 0.16,-0.01 0.38,-0.02 0.12,0 0.02,-0.01 0.07,0 0.14,0 0.38,-0.02 1.82,-0.06 0.03,0 0.15,0 0.43,-0.01 0.08,0 1.03,-0.02 0.04,0 0.84,-0.02 0.31,0 0.29,0 0.6,-0.01 1.43,-0.01 0.24,-0.01 0.35,0 0.03,0 0.47,0 0.43,0 0.53,-0.01 0.16,0 0.21,0 0.15,0 0.2,0 0.6,0 0.46,0 0.04,0 1.1,-0.01 1.31,0 1.04,0 0.01,0 2.03,0 0.28,0 1.65,0 0.09,0 0.07,0 0.64,0 0.29,0 0.14,0 0.24,0 0.27,0 0.24,0 0.9,0 0.01,0 0.08,0 0.13,0 0.38,0 1.3,0 0.25,0 0.58,0 0.68,0 0.01,0 0.19,0 0.1,0 0.55,0 0.42,0 0.06,0 0.38,0 0.62,0 0.24,0 0.86,0 0.38,0 1,0 0.1,0 0.82,0 0.04,0 1.04,0 1.54,0 0.44,0 0.5,0 0.63,0 1.02,0 0.7,0 0.05,0 0.65,0 0.14,0 0.23,0 0.13,0 0.08,0 0.74,0 1.28,0 0.09,0 0.05,0 0.56,0 1.04,0 1,0 0.26,0 0.38,0 1.65,0 0.36,0 0.36,0 0.13,0 0.11,0 0.95,0 0.46,0 0.31,0 0.76,0 0.83,0 0.88,0 0.75,0 1.98,0 0.05,0 2.03,0 0.03,0 0.06,0 0.86,0 0.72,0 0.81,0 0.15,0 0.73,0 0.04,0 0.2,0 0.17,0 0.26,0 0.42,0 0.78,0 0.1,0 0.58,0 0.94,0 0.73,0 0.05,0 0.95,0 0.05,0 0.11,0 0.01,0 0.36,0 0.26,0 2.09,0 0.63,0 0.18,0 0.16,0 0.18,0 0.24,0 0.18,0 0.84,0 0.28,0 0.37,0 0.3,0 0.55,0 1.19,0 0.41,0 0.05,0 0.32,0 0.08,0 0.03,0 0.1,0 0.06,0 0.57,0 0.22,0 0.07,0 0.18,0 0.54,0 2.04,0 0.25,0 0.12,0 0.34,0 0.43,0 0.24,0 0.26,0 0.02,0 0.29,0 0.11,0 0.29,0 0.53,0 0.43,0 0.08,0 0.59,0 0.04,0 0.39,0 0.07,0 1.07,0 0.89,0 0.08,0 0.05,0 0.76,0 1.96,0 0.64,0 0.93,0 0.16,0 0.4,0 0.09,0 0.02,0 0.22,0 0.17,0 0.1,0 0.07,0 0.52,0 0,0 0.01,0 0.98,0 0.05,0 0.64,0 0.05,0 0.47,0 1.97,0 0.2,0 0.49,0 0.6,0 0.09,0 0.6,0 1.98,0 0.21,0 1.93,0 0.98,0 0.5,0 2.46,0 0.06,0 0.12,0 0.29,0 0.14,0 0.94,0 0.41,0 0.04,0 1.28,0 0.07,0 0.03,0 0.24,0 0.22,0 0.74,0 0.48,0 0.52,0 0.28,0 1.18,0 0.49,0 0.32,0 0.12,0 0.23,0 0.08,0 0.08,0 0.13,0 0.14,0 0.14,0 0.03,0 0.06,0 0.66,0 0.01,0 0.2,0 0.15,0 0.57,0 0.22,0 0.47,0 0.6,0 0.08,0 0.39,0 0.12,0 1.15,0 0.21,0 0.87,0 0.44,0 0.09,0 0.26,0 0.13,0 0.54,0 0.09,0 0.16,0 0.21,0 1.61,0 0.38,0 0.11,0 0.54,0 1.8,0 0.33,0 0.31,0 0.24,0 0.68,0 0.33,0 0.16,0 0.82,0 0.28,0 0.08,0 0.06,0 2.15,0 0.28,0 0.83,0 0.44,0 0.61,0 0.48,0 0.05,0 0.27,0 1.23,0 0.56,0 0.83,0 0.83,0 0.62,0 0.71,0 0.18,0 0.26,0 0.01,0 0.02,0 0.63,0 0.17,0 0.12,0 0.4,0 0.54,0 1,0 0.12,0 0.4,0 0.21,0 0.15,0"
           inkscape:connector-curvature="0" />
        <path
           id="path5033"
           style="fill:none;stroke:#00a9ff;stroke-width:4.25;stroke-linecap:butt;stroke-linejoin:round;stroke-miterlimit:1;stroke-opacity:1;stroke-dasharray:none"
           d="m 55.36,41.55 0.27,0 0.16,0 0.21,0 0.01,0 0.27,0 0.78,0 0.11,0 0.95,0 0.41,0 0.49,0 0.29,0 0.97,0 1.01,0 0.89,0 0.61,0 0.71,0 0.03,0 0.21,0 0.98,0 0.13,0 0.49,0 0.78,0 0.3,0 0.45,0 0.43,0 0.72,0 2.74,0 0.99,0 0.44,0 0.46,0 0.06,0 0.44,0 0.83,0 0.02,0 0.35,0 0.07,0 0.24,0 1.28,0 0.05,0 1.93,0 0.44,0 0.29,0 0.2,0 0.07,0 0.08,0 0.47,0 0.16,0 0.76,0 0.04,0 0.35,0 0.03,0 0.76,0 0.56,0 0.13,0 0.18,0 0.05,0 0.21,0 0.38,0 0.72,0 0.49,0 0.33,0 0.66,0 1.06,0 0.33,0 0.2,0 0.03,0 0.06,0 0.01,0 0.62,0 0.12,0 0.16,0 0,0 0.52,0 0.5,0 0.42,0 0.9,0 0.15,0 0.15,0 0.03,0 0.21,0 0.09,0 0.53,0 0.79,0 0.08,0 0.77,0 0.3,0 0.1,0 0.19,0 1.21,0 2.91,0 0.08,0 0.32,0 0.29,0 0.34,0 0.11,0 0.04,0 0.16,0 0.21,0 0.13,0 0.07,0 0.56,0 0.4,0 0.05,0 0.82,0 0.06,0 0.31,0 0.24,0 0.68,0 0.09,0 0.46,0 0.09,0 0.62,0 0.42,0 0.61,0 0.39,0 0.04,0 0.81,0 0.29,0 0.52,0 0.1,0 0.42,0 1.9,0 0.14,0 0.02,0 0.94,0 2.61,0 0.34,0 1.65,0 0.2,0.01 0.5,0 0.02,0 0.03,0 0.29,0 0.42,0.01 0.25,0.01 0.65,0.02 0.1,0 0.67,0.03 0.56,0.05 0.22,0.02 0.1,0.01 0.22,0.03 0.02,0 0.18,0.03 0.17,0.02 0.31,0.06 0.27,0.06 0.58,0.16 0.67,0.27 0.59,0.33 0.16,0.12 0.2,0.15 0.01,0 0.33,0.29 0.84,0.96 1,1.73 1.19,3.2 0.81,3.07 0.01,0.02 0.48,2.24 0.47,2.49 2.04,14.56 0.35,3.13 0.42,3.91 0.09,0.86 0.14,1.28 0.24,2.39 0.16,1.54 0.05,0.51 0.2,2.04 0.14,1.45 0.13,1.31 0.53,5.41 0.28,2.86 0.44,4.43 0.1,0.97 0.72,6.83 0.3,2.57 0.24,1.97 0.86,6.03 0,0.01 0.01,0.07 0.42,2.19 1.22,3.47 0.17,0.1 0.05,0.01 0.35,-0.17 0.2,-0.27 0.12,-0.24 0.08,-0.18 0.17,-0.45 0.44,-1.59 1.34,-8.27 0.19,-1.51 0.47,-4.04 0.16,-1.4 0.38,-3.66 0.12,-1.13 0.02,-0.21 0.07,-0.68 0.14,-1.34 0.38,-3.84 1.82,-18.36 0.03,-0.27 0.15,-1.45 0.43,-3.93 0.08,-0.7 1.03,-8.43 0.04,-0.24 0.84,-5.72 0.31,-1.78 0.29,-1.58 0.6,-2.92 1.43,-5 0.24,-0.62 0.35,-0.83 0.03,-0.05 0.47,-0.93 0.43,-0.68 0.53,-0.69 0.16,-0.18 0.21,-0.21 0.15,-0.14 0.2,-0.17 0.6,-0.42 0.46,-0.25 0.04,-0.01 1.1,-0.38 1.31,-0.22 1.04,-0.08 0.01,0 2.03,-0.06 0.28,0 1.65,-0.01 0.09,0 0.07,0 0.64,0 0.29,0 0.14,0 0.24,0 0.27,0 0.24,0 0.9,0 0.01,0 0.08,0 0.13,0 0.38,0 1.3,0 0.25,0 0.58,0 0.68,0 0.01,0 0.19,0 0.1,0 0.55,0 0.42,0 0.06,0 0.38,0 0.62,0 0.24,0 0.86,0 0.38,0 1,0 0.1,0 0.82,0 0.04,0 1.04,0 1.54,0 0.44,0 0.5,0 0.63,0 1.02,0 0.7,0 0.05,0 0.65,0 0.14,0 0.23,0 0.13,0 0.08,0 0.74,0 1.28,0 0.09,0 0.05,0 0.56,0 1.04,0 1,0 0.26,0 0.38,0 1.65,0 0.36,0 0.36,0 0.13,0 0.11,0 0.95,0 0.46,0 0.31,0 0.76,0 0.83,0 0.88,0 0.75,0 1.98,0 0.05,0 2.03,0 0.03,0 0.06,0 0.86,0 0.72,0 0.81,0 0.15,0 0.73,0 0.04,0 0.2,0 0.17,0 0.26,0 0.42,0 0.78,0 0.1,0 0.58,0 0.94,0 0.73,0 0.05,0 0.95,0 0.05,0 0.11,0 0.01,0 0.36,0 0.26,0 2.09,0 0.63,0 0.18,0 0.16,0 0.18,0 0.24,0 0.18,0 0.84,0 0.28,0 0.37,0 0.3,0 0.55,0 1.19,0 0.41,0 0.05,0 0.32,0 0.08,0 0.03,0 0.1,0 0.06,0 0.57,0 0.22,0 0.07,0 0.18,0 0.54,0 2.04,0 0.25,0 0.12,0 0.34,0 0.43,0 0.24,0 0.26,0 0.02,0 0.29,0 0.11,0 0.29,0 0.53,0 0.43,0 0.08,0 0.59,0 0.04,0 0.39,0 0.07,0 1.07,0 0.89,0 0.08,0 0.05,0 0.76,0 1.96,0 0.64,0 0.93,0 0.16,0 0.4,0 0.09,0 0.02,0 0.22,0 0.17,0 0.1,0 0.07,0 0.52,0 0,0 0.01,0 0.98,0 0.05,0 0.64,0 0.05,0 0.47,0 1.97,0 0.2,0 0.49,0 0.6,0 0.09,0 0.6,0 1.98,0 0.21,0 1.93,0 0.98,0 0.5,0 2.46,0 0.06,0 0.12,0 0.29,0 0.14,0 0.94,0 0.41,0 0.04,0 1.28,0 0.07,0 0.03,0 0.24,0 0.22,0 0.74,0 0.48,0 0.52,0 0.28,0 1.18,0 0.49,0 0.32,0 0.12,0 0.23,0 0.08,0 0.08,0 0.13,0 0.14,0 0.14,0 0.03,0 0.06,0 0.66,0 0.01,0 0.2,0 0.15,0 0.57,0 0.22,0 0.47,0 0.6,0 0.08,0 0.39,0 0.12,0 1.15,0 0.21,0 0.87,0 0.44,0 0.09,0 0.26,0 0.13,0 0.54,0 0.09,0 0.16,0 0.21,0 1.61,0 0.38,0 0.11,0 0.54,0 1.8,0 0.33,0 0.31,0 0.24,0 0.68,0 0.33,0 0.16,0 0.82,0 0.28,0 0.08,0 0.06,0 2.15,0 0.28,0 0.83,0 0.44,0 0.61,0 0.48,0 0.05,0 0.27,0 1.23,0 0.56,0 0.83,0 0.83,0 0.62,0 0.71,0 0.18,0 0.26,0 0.01,0 0.02,0 0.63,0 0.17,0 0.12,0 0.4,0 0.54,0 1,0 0.12,0 0.4,0 0.21,0 0.15,0"
           inkscape:connector-curvature="0" />
        <path
           id="path5035"
           style="fill:none;stroke:#c77cff;stroke-width:4.25;stroke-linecap:butt;stroke-linejoin:round;stroke-miterlimit:1;stroke-opacity:1;stroke-dasharray:none"
           d="m 55.36,41.55 0.27,0 0.16,0 0.21,0 0.01,0 0.27,0 0.78,0 0.11,0 0.95,0 0.41,0 0.49,0 0.29,0 0.97,0 1.01,0 0.89,0 0.61,0 0.71,0 0.03,0 0.21,0 0.98,0 0.13,0 0.49,0 0.78,0 0.3,0 0.45,0 0.43,0 0.72,0 2.74,0 0.99,0 0.44,0 0.46,0 0.06,0 0.44,0 0.83,0 0.02,0 0.35,0 0.07,0 0.24,0 1.28,0 0.05,0 1.93,0 0.44,0 0.29,0 0.2,0 0.07,0 0.08,0 0.47,0 0.16,0 0.76,0 0.04,0 0.35,0 0.03,0 0.76,0 0.56,0 0.13,0 0.18,0 0.05,0 0.21,0 0.38,0 0.72,0 0.49,0 0.33,0 0.66,0 1.06,0 0.33,0 0.2,0 0.03,0 0.06,0 0.01,0 0.62,0 0.12,0 0.16,0 0,0 0.52,0 0.5,0 0.42,0 0.9,0 0.15,0 0.15,0 0.03,0 0.21,0 0.09,0 0.53,0 0.79,0 0.08,0 0.77,0 0.3,0 0.1,0 0.19,0 1.21,0 2.91,0 0.08,0 0.32,0 0.29,0 0.34,0 0.11,0 0.04,0 0.16,0 0.21,0 0.13,0 0.07,0 0.56,0 0.4,0 0.05,0 0.82,0 0.06,0 0.31,0 0.24,0 0.68,0 0.09,0 0.46,0 0.09,0 0.62,0 0.42,0 0.61,0 0.39,0 0.04,0 0.81,0 0.29,0 0.52,0 0.1,0 0.42,0 1.9,0 0.14,0 0.02,0 0.94,0 2.61,0 0.34,0 1.65,0 0.2,0 0.5,0 0.02,0 0.03,0 0.29,0 0.42,0 0.25,0 0.65,0 0.1,0 0.67,0 0.56,0 0.22,0 0.1,0 0.22,0 0.02,0 0.18,0 0.17,0 0.31,0 0.27,0 0.58,0 0.67,0 0.59,0 0.16,0 0.2,0 0.01,0 0.33,0 0.84,0 1,0 1.19,0 0.81,0 0.01,0 0.48,0 0.47,0 2.04,0 0.35,0 0.42,0 0.09,0 0.14,0 0.24,0 0.16,0 0.05,0 0.2,0 0.14,0 0.13,0 0.53,0 0.28,0 0.44,0 0.1,0 0.72,0 0.3,0 0.24,0 0.86,0 0,0 0.01,0 0.42,0 1.22,0 0.17,0 0.05,0 0.35,0 0.2,0 0.12,0 0.08,0 0.17,0 0.44,0 1.34,0 0.19,0 0.47,0 0.16,0 0.38,0.01 0.12,0 0.02,0 0.07,0 0.14,0 0.38,0 1.82,0.03 0.03,0 0.15,0.01 0.43,0.01 0.08,0 1.03,0.05 0.04,0 0.84,0.06 0.31,0.03 0.29,0.03 0.6,0.08 1.43,0.3 0.24,0.07 0.35,0.11 0.03,0.01 0.47,0.18 0.43,0.19 0.53,0.29 0.16,0.1 0.21,0.13 0.15,0.1 0.2,0.15 0.6,0.5 0.46,0.46 0.04,0.04 1.1,1.39 1.31,2.33 1.04,2.44 0.01,0.02 2.03,6.6 0.28,1.1 1.65,7.43 0.09,0.46 0.07,0.35 0.64,3.32 0.29,1.53 0.14,0.77 0.24,1.29 0.27,1.47 0.24,1.35 0.9,5.07 0.01,0.08 0.08,0.47 0.13,0.74 0.38,2.12 1.3,6.93 0.25,1.21 0.58,2.74 0.68,2.83 0.01,0.04 0.19,0.7 0.1,0.34 0.55,1.79 0.42,1.14 0.06,0.15 0.38,0.81 0.62,0.93 0.24,0.22 0.86,0.14 0.38,-0.26 1,-1.59 0.1,-0.23 0.82,-2.37 0.04,-0.11 1.04,-4.07 1.54,-7.52 0.44,-2.41 0.5,-2.79 0.63,-3.54 1.02,-5.69 0.7,-3.83 0.05,-0.24 0.65,-3.39 0.14,-0.68 0.23,-1.14 0.13,-0.62 0.08,-0.38 0.74,-3.36 1.28,-5.09 0.09,-0.3 0.05,-0.2 0.56,-1.83 1.04,-2.96 1,-2.27 0.26,-0.5 0.38,-0.68 1.65,-2.27 0.36,-0.37 0.36,-0.32 0.13,-0.11 0.11,-0.08 0.95,-0.64 0.46,-0.25 0.31,-0.14 0.76,-0.28 0.83,-0.23 0.88,-0.17 0.75,-0.1 1.98,-0.15 0.05,0 2.03,-0.06 0.03,0 0.06,0 0.86,-0.01 0.72,0 0.81,-0.01 0.15,0 0.73,0 0.04,0 0.2,0 0.17,0 0.26,0 0.42,0 0.78,0 0.1,0 0.58,0 0.94,0 0.73,0 0.05,0 0.95,0 0.05,0 0.11,0 0.01,0 0.36,0 0.26,0 2.09,0 0.63,0 0.18,0 0.16,0 0.18,0 0.24,0 0.18,0 0.84,0 0.28,0 0.37,0 0.3,0 0.55,0 1.19,0 0.41,0 0.05,0 0.32,0 0.08,0 0.03,0 0.1,0 0.06,0 0.57,0 0.22,0 0.07,0 0.18,0 0.54,0 2.04,0 0.25,0 0.12,0 0.34,0 0.43,0 0.24,0 0.26,0 0.02,0 0.29,0 0.11,0 0.29,0 0.53,0 0.43,0 0.08,0 0.59,0 0.04,0 0.39,0 0.07,0 1.07,0 0.89,0 0.08,0 0.05,0 0.76,0 1.96,0 0.64,0 0.93,0 0.16,0 0.4,0 0.09,0 0.02,0 0.22,0 0.17,0 0.1,0 0.07,0 0.52,0 0,0 0.01,0 0.98,0 0.05,0 0.64,0 0.05,0 0.47,0 1.97,0 0.2,0 0.49,0 0.6,0 0.09,0 0.6,0 1.98,0 0.21,0 1.93,0 0.98,0 0.5,0 2.46,0 0.06,0 0.12,0 0.29,0 0.14,0 0.94,0 0.41,0 0.04,0 1.28,0 0.07,0 0.03,0 0.24,0 0.22,0 0.74,0 0.48,0 0.52,0 0.28,0 1.18,0 0.49,0 0.32,0 0.12,0 0.23,0 0.08,0 0.08,0 0.13,0 0.14,0 0.14,0 0.03,0 0.06,0 0.66,0 0.01,0 0.2,0 0.15,0 0.57,0 0.22,0 0.47,0 0.6,0 0.08,0 0.39,0 0.12,0 1.15,0 0.21,0 0.87,0 0.44,0 0.09,0 0.26,0 0.13,0 0.54,0 0.09,0 0.16,0 0.21,0 1.61,0 0.38,0 0.11,0 0.54,0 1.8,0 0.33,0 0.31,0 0.24,0 0.68,0 0.33,0 0.16,0 0.82,0 0.28,0 0.08,0 0.06,0 2.15,0 0.28,0 0.83,0 0.44,0 0.61,0 0.48,0 0.05,0 0.27,0 1.23,0 0.56,0 0.83,0 0.83,0 0.62,0 0.71,0 0.18,0 0.26,0 0.01,0 0.02,0 0.63,0 0.17,0 0.12,0 0.4,0 0.54,0 1,0 0.12,0 0.4,0 0.21,0 0.15,0"
           inkscape:connector-curvature="0" />
        <path
           id="path5037"
           style="fill:none;stroke:#ff61cc;stroke-width:4.25;stroke-linecap:butt;stroke-linejoin:round;stroke-miterlimit:1;stroke-opacity:1;stroke-dasharray:none"
           d="m 55.36,41.55 0.27,0 0.16,0 0.21,0 0.01,0 0.27,0 0.78,0 0.11,0 0.95,0 0.41,0 0.49,0 0.29,0 0.97,0 1.01,0 0.89,0 0.61,0 0.71,0 0.03,0 0.21,0 0.98,0 0.13,0 0.49,0 0.78,0 0.3,0 0.45,0 0.43,0 0.72,0 2.74,0 0.99,0 0.44,0 0.46,0 0.06,0 0.44,0 0.83,0 0.02,0 0.35,0 0.07,0 0.24,0 1.28,0 0.05,0 1.93,0 0.44,0 0.29,0 0.2,0 0.07,0 0.08,0 0.47,0 0.16,0 0.76,0 0.04,0 0.35,0 0.03,0 0.76,0 0.56,0 0.13,0 0.18,0 0.05,0 0.21,0 0.38,0 0.72,0 0.49,0 0.33,0 0.66,0 1.06,0 0.33,0 0.2,0 0.03,0 0.06,0 0.01,0 0.62,0 0.12,0 0.16,0 0,0 0.52,0 0.5,0 0.42,0 0.9,0 0.15,0 0.15,0 0.03,0 0.21,0 0.09,0 0.53,0 0.79,0 0.08,0 0.77,0 0.3,0 0.1,0 0.19,0 1.21,0 2.91,0 0.08,0 0.32,0 0.29,0 0.34,0 0.11,0 0.04,0 0.16,0 0.21,0 0.13,0 0.07,0 0.56,0 0.4,0 0.05,0 0.82,0 0.06,0 0.31,0 0.24,0 0.68,0 0.09,0 0.46,0 0.09,0 0.62,0 0.42,0 0.61,0 0.39,0 0.04,0 0.81,0 0.29,0 0.52,0 0.1,0 0.42,0 1.9,0 0.14,0 0.02,0 0.94,0 2.61,0 0.34,0 1.65,0 0.2,0 0.5,0 0.02,0 0.03,0 0.29,0 0.42,0 0.25,0 0.65,0 0.1,0 0.67,0 0.56,0 0.22,0 0.1,0 0.22,0 0.02,0 0.18,0 0.17,0 0.31,0 0.27,0 0.58,0 0.67,0 0.59,0 0.16,0 0.2,0 0.01,0 0.33,0 0.84,0 1,0 1.19,0 0.81,0 0.01,0 0.48,0 0.47,0 2.04,0 0.35,0 0.42,0 0.09,0 0.14,0 0.24,0 0.16,0 0.05,0 0.2,0 0.14,0 0.13,0 0.53,0 0.28,0 0.44,0 0.1,0 0.72,0 0.3,0 0.24,0 0.86,0 0,0 0.01,0 0.42,0 1.22,0 0.17,0 0.05,0 0.35,0 0.2,0 0.12,0 0.08,0 0.17,0 0.44,0 1.34,0 0.19,0 0.47,0 0.16,0 0.38,0 0.12,0 0.02,0 0.07,0 0.14,0 0.38,0 1.82,0.01 0.03,0 0.15,0 0.43,0 0.08,0 1.03,0 0.04,0 0.84,0 0.31,0 0.29,0.01 0.6,0 1.43,0.01 0.24,0 0.35,0 0.03,0 0.47,0.01 0.43,0 0.53,0.01 0.16,0 0.21,0 0.15,0 0.2,0.01 0.6,0 0.46,0.01 0.04,0 1.1,0.02 1.31,0.03 1.04,0.03 0.01,0 2.03,0.08 0.28,0.01 1.65,0.1 0.09,0 0.07,0.01 0.64,0.04 0.29,0.02 0.14,0.01 0.24,0.02 0.27,0.03 0.24,0.02 0.9,0.08 0.01,0 0.08,0.01 0.13,0.01 0.38,0.05 1.3,0.16 0.25,0.03 0.58,0.09 0.68,0.1 0.01,0.01 0.19,0.03 0.1,0.01 0.55,0.1 0.42,0.08 0.06,0.02 0.38,0.07 0.62,0.14 0.24,0.06 0.86,0.21 0.38,0.1 1,0.29 0.1,0.03 0.82,0.27 0.04,0.01 1.04,0.38 1.54,0.64 0.44,0.21 0.5,0.24 0.63,0.32 1.02,0.55 0.7,0.41 0.05,0.03 0.65,0.41 0.14,0.08 0.23,0.16 0.13,0.08 0.08,0.05 0.74,0.51 1.28,0.94 0.09,0.07 0.05,0.04 0.56,0.44 1.04,0.86 1,0.86 0.26,0.24 0.38,0.34 1.65,1.57 0.36,0.36 0.36,0.35 0.13,0.13 0.11,0.11 0.95,0.97 0.46,0.47 0.31,0.33 0.76,0.79 0.83,0.87 0.88,0.93 0.75,0.8 1.98,2.04 0.05,0.04 2.03,1.97 0.03,0.02 0.06,0.06 0.86,0.77 0.72,0.61 0.81,0.65 0.15,0.11 0.73,0.54 0.04,0.02 0.2,0.14 0.17,0.12 0.26,0.17 0.42,0.26 0.78,0.45 0.1,0.05 0.58,0.29 0.94,0.4 0.73,0.25 0.05,0.01 0.95,0.24 0.05,0.01 0.11,0.01 0.01,0.01 0.36,0.05 0.26,0.03 2.09,-0.01 0.63,-0.1 0.18,-0.04 0.16,-0.03 0.18,-0.05 0.24,-0.06 0.18,-0.05 0.84,-0.28 0.28,-0.11 0.37,-0.16 0.3,-0.14 0.55,-0.28 1.19,-0.69 0.41,-0.27 0.05,-0.03 0.32,-0.22 0.08,-0.06 0.03,-0.03 0.1,-0.07 0.06,-0.04 0.57,-0.42 0.22,-0.18 0.07,-0.05 0.18,-0.14 0.54,-0.45 2.04,-1.83 0.25,-0.23 0.12,-0.12 0.34,-0.33 0.43,-0.43 0.24,-0.23 0.26,-0.26 0.02,-0.02 0.29,-0.3 0.11,-0.11 0.29,-0.3 0.53,-0.55 0.43,-0.45 0.08,-0.08 0.59,-0.62 0.04,-0.04 0.39,-0.42 0.07,-0.07 1.07,-1.12 0.89,-0.94 0.08,-0.08 0.05,-0.05 0.76,-0.8 1.96,-1.97 0.64,-0.62 0.93,-0.88 0.16,-0.14 0.4,-0.37 0.09,-0.08 0.02,-0.02 0.22,-0.2 0.17,-0.15 0.1,-0.09 0.07,-0.06 0.52,-0.44 0,0 0.01,-0.01 0.98,-0.82 0.05,-0.04 0.64,-0.5 0.05,-0.04 0.47,-0.36 1.97,-1.37 0.2,-0.14 0.49,-0.3 0.6,-0.36 0.09,-0.05 0.6,-0.35 1.98,-1 0.21,-0.1 1.93,-0.79 0.98,-0.35 0.5,-0.16 2.46,-0.68 0.06,-0.01 0.12,-0.03 0.29,-0.06 0.14,-0.03 0.94,-0.19 0.41,-0.08 0.04,-0.01 1.28,-0.21 0.07,-0.01 0.03,-0.01 0.24,-0.03 0.22,-0.03 0.74,-0.1 0.48,-0.06 0.52,-0.06 0.28,-0.03 1.18,-0.11 0.49,-0.04 0.32,-0.02 0.12,-0.01 0.23,-0.02 0.08,0 0.08,-0.01 0.13,-0.01 0.14,-0.01 0.14,-0.01 0.03,0 0.06,0 0.66,-0.04 0.01,0 0.2,-0.02 0.15,0 0.57,-0.03 0.22,-0.01 0.47,-0.02 0.6,-0.03 0.08,0 0.39,-0.02 0.12,0 1.15,-0.04 0.21,0 0.87,-0.02 0.44,-0.01 0.09,-0.01 0.26,0 0.13,0 0.54,-0.01 0.09,-0.01 0.16,0 0.21,0 1.61,-0.02 0.38,-0.01 0.11,0 0.54,0 1.8,-0.02 0.33,0 0.31,0 0.24,0 0.68,-0.01 0.33,0 0.16,0 0.82,0 0.28,0 0.08,0 0.06,0 2.15,-0.01 0.28,0 0.83,0 0.44,0 0.61,0 0.48,0 0.05,0 0.27,0 1.23,0 0.56,0 0.83,0 0.83,0 0.62,0 0.71,0 0.18,0 0.26,0 0.01,0 0.02,0 0.63,0 0.17,0 0.12,0 0.4,0 0.54,0 1,0 0.12,0 0.4,0 0.21,0 0.15,0"
           inkscape:connector-curvature="0" />
      </g>
    </g>
    <g
       style="stroke-width:2.7103188;stroke-miterlimit:4;stroke-dasharray:none"
       id="g5041"
       transform="matrix(0.22928025,0,0,-0.22928025,250.78019,310.74491)">
      <path
         sodipodi:nodetypes="cc"
         id="path5043"
         style="fill:none;stroke:#000000;stroke-width:2.7103188;stroke-linecap:butt;stroke-linejoin:round;stroke-miterlimit:4;stroke-opacity:1;stroke-dasharray:none"
         d="m 44,37.28 0,82.7499"
         inkscape:connector-curvature="0" />
    </g>
    <g
       style="stroke-width:2.7103188;stroke-miterlimit:4;stroke-dasharray:none"
       id="g5083"
       transform="matrix(0.22928025,0,0,-0.22928025,250.78019,310.74491)">
      <path
         sodipodi:nodetypes="cc"
         id="path5085"
         style="fill:none;stroke:#000000;stroke-width:2.7103188;stroke-linecap:butt;stroke-linejoin:round;stroke-miterlimit:4;stroke-opacity:1;stroke-dasharray:none"
         d="m 44,37.28 202.17855,0.276753"
         inkscape:connector-curvature="0" />
    </g>
    <text
       inkscape:export-ydpi="177.8"
       inkscape:export-xdpi="177.8"
       inkscape:export-filename="/home/max/Documents/manuscripts/abm/niche0.png"
       sodipodi:linespacing="125%"
       id="text4385"
       y="306.4115"
       x="283.98508"
       style="font-size:2.60210156px;font-style:normal;font-variant:normal;font-weight:normal;font-stretch:normal;text-align:center;line-height:125%;letter-spacing:0px;word-spacing:0px;text-anchor:middle;fill:#000000;fill-opacity:1;stroke:none;font-family:Helvetica;-inkscape-font-specification:Helvetica"
       xml:space="preserve"><tspan
         y="306.4115"
         x="283.98508"
         id="tspan4387"
         sodipodi:role="line">Within-host environmental condition</tspan></text>
    <text
       transform="matrix(0,-1,1,0,0,0)"
       sodipodi:linespacing="125%"
       id="text5945"
       y="258.00873"
       x="-292.75684"
       style="font-size:2.60210156px;font-style:normal;font-variant:normal;font-weight:normal;font-stretch:normal;text-align:center;line-height:125%;letter-spacing:0px;word-spacing:0px;text-anchor:middle;fill:#000000;fill-opacity:1;stroke:none;font-family:Helvetica;-inkscape-font-specification:Helvetica"
       xml:space="preserve"><tspan
         y="258.00873"
         x="-292.75684"
         id="tspan5947"
         sodipodi:role="line">Pr(establishment)</tspan></text>
  </g>
</svg>
